<?xml version="1.0" encoding="utf-8"?>
<svg version="1.1" xmlns:xlink="http://www.w3.org/1999/xlink" width="41px" height="35px" xmlns="http://www.w3.org/2000/svg">
  <g transform="matrix(1 0 0 1 -385 -777 )">
    <path d="M 21.506696428571427 34.58984375  C 21.232142857142858 34.86328125  20.896577380952383 35  20.5 35  C 20.10342261904762 35  19.767857142857146 34.86328125  19.49330357142857 34.58984375  L 5.216517857142857 20.872395833333336  C 5.063988095238096 20.750868055555554  4.854259672619048 20.553385416666664  4.587332589285714 20.279947916666664  C 4.320405505952381 20.006510416666664  3.897135416666667 19.50900607638889  3.3175223214285716 18.787434895833336  C 2.7379092261904763 18.065863715277775  2.2193080357142856 17.325303819444443  1.76171875 16.565755208333332  C 1.3041294642857142 15.806206597222223  0.8961123511904763 14.887152777777777  0.5376674107142857 13.80859375  C 0.17922247023809523 12.730034722222218  0 11.681857638888888  0 10.6640625  C 0 7.322048611111109  0.9685639880952379 4.709201388888887  2.9056919642857144 2.825520833333332  C 4.842819940476191 0.9418402777777773  7.519717261904761 0  10.936383928571429 0  C 11.882068452380953 0  12.846819196428571 0.16330295138888673  13.830636160714286 0.48990885416666796  C 14.814453125 0.8165147569444414  15.729631696428571 1.2570529513888866  16.576171875 1.8115234375  C 17.42271205357143 2.3659939236111094  18.15104166666667 2.8862847222222188  18.761160714285715 3.372395833333332  C 19.371279761904763 3.8585069444444415  19.950892857142858 4.375  20.5 4.921875  C 21.049107142857142 4.375  21.62872023809524 3.8585069444444415  22.238839285714285 3.372395833333332  C 22.848958333333336 2.8862847222222188  23.577287946428573 2.3659939236111094  24.423828125 1.8115234375  C 25.270368303571427 1.2570529513888866  26.185546875 0.8165147569444414  27.169363839285715 0.48990885416666796  C 28.153180803571427 0.16330295138888673  29.11793154761905 0  30.063616071428573 0  C 33.48028273809524 0  36.15718005952381 0.9418402777777773  38.094308035714285 2.825520833333332  C 40.031436011904766 4.709201388888887  41 7.322048611111109  41 10.6640625  C 41 14.021267361111109  39.253534226190474 17.43923611111111  35.76060267857143 20.91796875  L 21.506696428571427 34.58984375  Z " fill-rule="nonzero" fill="#ff6700" stroke="none" transform="matrix(1 0 0 1 385 777 )" />
  </g>
</svg>